<?xml version="1.0" standalone="no"?>
<!DOCTYPE svg PUBLIC "-//W3C//DTD SVG 20010904//EN"
 "http://www.w3.org/TR/2001/REC-SVG-20010904/DTD/svg10.dtd">
<svg version="1.0" xmlns="http://www.w3.org/2000/svg"
 width="84.000000pt" height="54.000000pt" viewBox="0 0 438.000000 425.000000"
 preserveAspectRatio="xMidYMid meet">

<g transform="translate(0.000000,425.000000) scale(0.100000,-0.100000)"
fill="#000000" stroke="none">
<path d="M2125 3973 c-340 -27 -616 -116 -888 -284 -115 -72 -189 -131 -311
-249 -321 -312 -511 -706 -557 -1160 -8 -83 -16 -120 -29 -135 -42 -48 -30
-106 26 -127 31 -11 32 -13 39 -87 32 -352 178 -708 405 -986 83 -102 252
-259 361 -337 117 -84 340 -197 481 -243 812 -268 1694 51 2143 776 336 541
364 1219 74 1789 -89 175 -177 296 -319 444 -322 333 -747 531 -1190 554 -120
7 -125 8 -128 30 -4 23 -6 24 -107 15z m113 -1036 c38 -39 41 -45 27 -57 -13
-11 -20 -9 -44 14 l-27 26 -24 -25 c-27 -29 -48 -32 -57 -9 -4 10 8 30 33 55
21 21 41 39 44 39 3 0 25 -20 48 -43z m-138 -83 c11 -12 10 -18 -3 -32 -16
-15 -18 -15 -34 0 -13 14 -14 20 -3 32 7 9 16 16 20 16 4 0 13 -7 20 -16z
m110 0 c11 -12 11 -18 -2 -31 -19 -18 -38 -10 -38 16 0 33 20 40 40 15z m109
-30 c-14 -14 -17 -14 -29 0 -10 13 -10 19 0 32 12 14 15 14 29 0 14 -15 14
-17 0 -32z m-149 -39 l24 -25 28 27 c25 24 30 25 43 12 13 -13 10 -20 -30 -59
l-45 -44 -42 41 c-27 27 -39 47 -35 57 9 23 30 20 57 -9z m-135 -299 c44 -21
95 -59 95 -71 0 -2 -17 2 -37 9 -21 7 -51 16 -68 20 -29 7 -28 5 20 -39 40
-38 45 -45 25 -40 -127 34 -296 44 -404 24 -31 -5 -62 -9 -67 -7 -17 6 74 58
128 74 55 16 183 21 246 9 45 -9 50 7 10 29 -45 25 -2 18 52 -8z m-242 -153
c-13 -2 -35 -2 -50 0 -16 2 -5 4 22 4 28 0 40 -2 28 -4z m124 0 c-20 -2 -52
-2 -70 0 -17 2 0 4 38 4 39 0 53 -2 32 -4z m691 0 c-32 -2 -84 -2 -115 0 -32
2 -6 3 57 3 63 0 89 -1 58 -3z m-191 -9 c-3 -3 -12 -4 -19 -1 -8 3 -5 6 6 6
11 1 17 -2 13 -5z m-861 -24 c-21 -11 -45 -25 -55 -32 -15 -12 -15 -11 -1 6 8
11 28 25 45 32 46 20 55 16 11 -6z m1324 -17 c12 -12 7 -11 -20 2 -45 22 -52
29 -20 20 14 -4 32 -14 40 -22z m-1484 -178 c18 -14 17 -15 -7 -6 -15 5 -37 7
-49 4 -16 -4 -21 -3 -16 5 10 17 49 15 72 -3z m1669 5 c4 -6 -8 -10 -29 -10
-19 0 -43 -3 -53 -6 -16 -5 -16 -4 1 10 22 18 71 21 81 6z m-974 -191 c81 -33
82 -34 46 -37 -26 -2 -49 4 -70 17 -62 40 -99 53 -135 46 -19 -3 -31 -9 -28
-12 10 -11 -16 -33 -38 -33 -19 1 -17 4 13 31 30 28 39 31 82 27 26 -3 85 -20
130 -39z m422 12 c24 -24 18 -36 -13 -26 -12 4 -19 13 -16 20 6 17 -43 27 -82
16 -17 -5 -47 -21 -68 -35 -26 -17 -52 -26 -78 -26 -45 0 -40 11 14 30 19 7
58 21 85 32 62 23 129 19 158 -11z m-930 -131 c11 0 31 -9 46 -19 15 -11 46
-27 69 -36 l42 -17 -37 -28 c-44 -32 -64 -54 -87 -95 l-16 -30 6 40 c4 22 11
51 16 64 9 24 -2 40 -27 41 -26 2 -105 94 -105 123 0 4 17 -4 37 -18 21 -14
46 -25 56 -25z m338 -197 c-45 -44 -72 -95 -58 -110 3 -3 20 0 38 6 18 6 50
11 73 11 40 -1 39 -2 -29 -24 -108 -35 -229 -106 -274 -159 -61 -74 -9 113 55
197 42 55 109 96 184 112 30 7 56 13 57 13 2 1 -19 -20 -46 -46z m54 -260
c-27 -64 -34 -95 -34 -153 -1 -79 21 -131 81 -196 l43 -47 -52 27 c-29 14 -68
40 -88 57 -28 25 -35 28 -35 13 0 -47 103 -161 199 -221 54 -34 24 -27 -37 8
-29 16 -85 62 -124 102 l-70 72 5 -43 5 -42 -26 19 c-66 48 -134 145 -158 229
-15 50 -15 54 3 68 65 49 229 123 277 124 13 0 16 -4 11 -17z"/>
</g>
</svg>
